HIERARCHY
ROOT Hips
{
	OFFSET 0.0000 0.0000 0.0000
	CHANNELS 6 Xposition Yposition Zposition Zrotation Xrotation Yrotation
	JOINT Ab
	{
		OFFSET -0.0000 8.0846 -0.0000
		CHANNELS 3 Zrotation Xrotation Yrotation
		JOINT Chest
		{
			OFFSET -0.0000 25.0068 -0.0000
			CHANNELS 3 Zrotation Xrotation Yrotation
			JOINT Neck
			{
				OFFSET -0.0000 25.0068 0.0000
				CHANNELS 3 Zrotation Xrotation Yrotation
				JOINT Head
				{
					OFFSET -0.0000 10.7556 0.0000
					CHANNELS 3 Zrotation Xrotation Yrotation
					End Site
					{
						OFFSET -0.0000 16.6222 0.0000
					}
				}
			}
			JOINT LeftCollar
			{
				OFFSET -0.0000 25.0068 0.0000
				CHANNELS 3 Zrotation Xrotation Yrotation
				JOINT LeftShoulder
				{
					OFFSET 19.5556 -0.0000 0.0000
					CHANNELS 3 Zrotation Xrotation Yrotation
					JOINT LeftElbow
					{
						OFFSET 27.1828 0.0000 0.0000
						CHANNELS 3 Zrotation Xrotation Yrotation
						JOINT LeftWrist
						{
							OFFSET 23.3157 0.0000 0.0000
							CHANNELS 3 Zrotation Xrotation Yrotation
							End Site
							{
								OFFSET 0.0000 -14.6667 0.0000
							}
						}
					}
				}
			}
			JOINT RightCollar
			{
				OFFSET -0.0000 25.0068 0.0000
				CHANNELS 3 Zrotation Xrotation Yrotation
				JOINT RightShoulder
				{
					OFFSET -19.5556 0.0000 0.0000
					CHANNELS 3 Zrotation Xrotation Yrotation
					JOINT RightElbow
					{
						OFFSET -27.1828 0.0000 0.0000
						CHANNELS 3 Zrotation Xrotation Yrotation
						JOINT RightWrist
						{
							OFFSET -23.3157 0.0000 0.0000
							CHANNELS 3 Zrotation Xrotation Yrotation
							End Site
							{
								OFFSET -0.0000 -14.6667 0.0000
							}
						}
					}
				}
			}
		}
	}
	JOINT LeftHip
	{
		OFFSET 11.7333 0.0000 0.0000
		CHANNELS 3 Zrotation Xrotation Yrotation
		JOINT LeftKnee
		{
			OFFSET -0.0000 -40.8688 0.0000
			CHANNELS 3 Zrotation Xrotation Yrotation
			JOINT LeftAnkle
			{
				OFFSET -0.0000 -44.4337 0.0000
				CHANNELS 3 Zrotation Xrotation Yrotation
				End Site
				{
					OFFSET -0.0000 -4.8889 16.6222
				}
			}
		}
	}
	JOINT RightHip
	{
		OFFSET -11.7333 0.0000 0.0000
		CHANNELS 3 Zrotation Xrotation Yrotation
		JOINT RightKnee
		{
			OFFSET -0.0000 -40.8688 0.0000
			CHANNELS 3 Zrotation Xrotation Yrotation
			JOINT RightAnkle
			{
				OFFSET -0.0000 -44.4337 0.0000
				CHANNELS 3 Zrotation Xrotation Yrotation
				End Site
				{
					OFFSET -0.0000 -4.8889 16.6222
				}
			}
		}
	}
}
MOTION
Frames: 11
Frame Time: 0.010000
-1.5324 88.6659 190.5315 2.4837 359.2226 176.8357 3.2668 359.1249 357.9209 357.9701 8.7138 358.0514 357.2009 342.6263 0.1717 6.9220 11.7709 359.8826 339.1112 358.3768 8.7220 298.8378 27.5684 358.5814 15.6470 354.5706 321.9624 81.8714 0.3441 338.8026 23.0153 359.0153 355.1107 58.1270 43.5784 6.4471 340.0429 354.2344 32.0655 276.6722 353.2617 22.2428 2.3978 358.6230 357.6873 359.4760 10.3088 356.5180 357.4140 350.9656 22.3710 1.4753 351.8270 359.8769 358.4846 19.8395 11.8646 355.0966 344.4450 335.9818 
-1.5415 88.6663 190.5154 2.4702 359.1917 176.8276 3.2645 359.1182 357.9233 357.9698 8.7156 358.0538 357.0715 342.6018 0.1249 7.0640 11.8036 359.8367 339.0981 358.3948 8.7787 298.8753 27.4922 358.5805 15.5770 354.6001 321.9803 81.8536 0.3498 338.7537 23.0184 359.0431 355.1743 58.0404 43.6465 6.5195 340.0430 354.1823 32.1466 276.6639 353.2831 22.2792 2.3772 358.6016 357.7658 359.4839 10.3142 356.4772 354.9168 350.5069 21.8850 1.4512 351.8164 359.8775 358.4919 19.8210 11.8727 355.1279 344.4366 335.9993 
-1.5434 88.6674 190.4975 2.4663 359.1799 176.8025 3.2506 359.1130 357.9315 357.9924 8.7608 358.0602 357.0164 342.5673 0.0934 7.0777 11.7960 359.8165 339.0973 358.3747 8.8125 298.8791 27.4604 358.5849 15.6115 354.6087 321.9755 81.8530 0.3061 338.7335 23.0080 359.0159 355.2154 57.9396 43.7543 6.6432 339.9365 354.1560 32.2446 276.7141 353.3027 22.2961 2.3715 358.6210 357.7930 359.4918 10.2874 356.4517 357.4102 350.9592 22.3692 1.4464 351.8187 359.9139 358.4965 19.8125 11.8960 355.1093 344.4361 335.9687 
-1.5476 88.6694 190.4791 2.4678 359.1702 176.7975 3.2236 359.1181 357.9545 358.0312 8.7899 358.0819 356.9119 342.5134 0.0109 7.1259 11.8669 359.7334 339.0947 358.4026 8.7832 298.8954 27.3012 358.6151 15.4847 354.6639 321.9701 81.9461 0.3403 338.6198 22.9808 359.0182 355.2096 57.8365 43.8124 6.7872 340.0008 354.1497 32.3380 276.5578 353.3193 22.4055 2.3673 358.6238 357.8143 359.5017 10.2895 356.4286 354.9169 350.4976 21.8951 1.4462 351.8402 359.9291 358.5064 19.7736 11.8398 355.1358 344.4386 336.0077 
-1.5466 88.6709 190.4575 2.4762 359.1657 176.7956 3.1936 359.1238 357.9780 358.0745 8.8250 358.1019 356.8385 342.4375 359.9430 7.1833 11.9634 359.6719 339.1050 358.3842 8.7170 298.8824 27.0974 358.6929 15.4275 354.6650 321.9037 81.8141 0.3197 338.3851 22.9680 359.0193 355.2067 57.7249 43.9123 6.9231 339.9610 354.1246 32.4071 276.5476 353.1405 22.4293 2.3843 358.6466 357.7560 359.4776 10.2681 356.4463 357.4072 350.8986 22.3878 1.4595 351.8706 359.9293 358.4982 19.7338 11.8064 355.1556 344.4357 336.0398 
-1.5511 88.6735 190.4423 2.4660 359.1505 176.8015 3.1688 359.1444 357.9884 358.0855 8.8053 358.1132 356.8333 342.5058 359.9165 7.2040 11.8550 359.6499 339.1124 358.4136 8.6273 298.8823 26.7176 358.7828 15.1648 354.7906 321.8816 81.8944 0.2645 338.0910 22.9810 359.0380 355.2057 57.5845 43.9951 7.0646 339.9656 354.1041 32.5374 276.4930 353.2264 22.3598 2.3708 358.6433 357.7766 359.4778 10.2582 356.4386 354.9764 350.4856 21.9280 1.4398 351.8862 359.9478 358.5115 19.6986 11.8508 355.1550 344.4206 335.9738 
-1.5529 88.6765 190.4163 2.4660 359.1498 176.7852 3.1602 359.1683 357.9989 358.0868 8.7945 358.1231 356.7910 342.5401 359.8907 7.2580 11.8105 359.6310 339.1290 358.3878 8.5991 298.8588 26.5929 358.8816 15.2045 354.7092 321.7405 81.4867 0.4887 337.8111 22.9822 359.0379 355.2312 57.4959 44.1124 7.1935 339.8702 354.0669 32.5859 276.5269 353.1481 22.3786 2.3718 358.6765 357.7831 359.4727 10.2386 356.4514 357.4369 350.9458 22.3675 1.4399 351.9116 359.9948 358.5263 19.6812 11.8306 355.1175 344.3919 335.9449 
-1.5579 88.6785 190.4010 2.4572 359.1130 176.7772 3.1522 359.1510 358.0094 358.0747 8.8285 358.1351 356.7789 342.4877 359.8655 7.2690 11.8218 359.6052 339.1450 358.4102 8.6182 298.8887 26.4829 358.8547 15.0079 354.7967 321.8608 82.0266 0.2706 337.8470 22.9941 359.0171 355.2392 57.3330 44.2340 7.3876 339.8369 354.0222 32.6857 276.4132 353.1381 22.3624 2.3719 358.6552 357.7350 359.4401 10.2288 356.4813 355.0521 350.4896 21.9660 1.4258 351.8842 359.9948 358.5175 19.6879 11.9157 355.1650 344.3609 335.9032 
-1.5588 88.6811 190.3851 2.4522 359.0849 176.7991 3.1403 359.1776 358.0036 358.0684 8.7947 358.1304 356.7704 342.4792 359.8353 7.2809 11.8446 359.5747 339.1493 358.4109 8.6484 298.9320 26.5332 358.8453 15.0407 354.7711 321.9195 81.9916 0.2183 337.8116 23.0310 359.0537 355.2218 57.1286 44.2781 7.5933 339.9417 354.0560 32.8214 276.3408 353.1765 22.4920 2.3696 358.6170 357.7133 359.4341 10.2608 356.4603 357.5797 350.9591 22.4431 1.4178 351.8720 359.9901 358.5242 19.6841 11.8991 355.3039 344.2130 335.9223 
-1.5668 88.6834 190.3618 2.4303 359.0606 176.8024 3.1150 359.2101 358.0101 358.0668 8.7282 358.1371 356.7402 342.5294 359.8141 7.3175 11.8389 359.5492 339.1533 358.3832 8.6446 298.8930 26.4190 358.9416 15.0616 354.7983 321.9325 81.9493 0.1874 337.7318 23.0611 359.0068 355.2353 56.9843 44.4291 7.7155 339.8156 353.9513 32.9756 276.3511 353.2149 22.4264 2.3464 358.6197 357.6828 359.4259 10.2342 356.4143 355.1834 350.4626 22.0625 1.3814 351.8533 0.0295 358.5474 19.7144 11.8885 355.2903 344.1500 335.9053 
-1.5701 88.6869 190.3421 2.4199 359.0262 176.8115 3.0684 359.2040 358.0130 358.1219 8.7503 358.1359 356.6301 342.4739 359.7480 7.3835 11.8866 359.4915 339.1435 358.3817 8.6591 298.9001 26.3318 358.9495 15.0407 354.7895 321.9167 81.7017 0.3138 337.4924 23.0446 359.0362 355.2701 56.8867 44.4847 7.8508 339.8239 353.9331 33.0835 276.2762 353.1624 22.4334 2.3405 358.5872 357.6477 359.4117 10.2553 356.4213 357.5061 350.8303 22.4802 1.3620 351.8394 0.0935 358.5743 19.7067 11.8690 355.3318 344.0759 335.8560 
